<?xml version="1.0" encoding="iso-8859-1"?>
<!-- Generator: Adobe Illustrator 16.0.0, SVG Export Plug-In . SVG Version: 6.00 Build 0)  -->
<!DOCTYPE svg PUBLIC "-//W3C//DTD SVG 1.1//EN" "http://www.w3.org/Graphics/SVG/1.1/DTD/svg11.dtd">
<svg version="1.1" id="Capa_1" xmlns="http://www.w3.org/2000/svg" xmlns:xlink="http://www.w3.org/1999/xlink" x="0px" y="0px"
	 width="70px" height="59px" viewBox="0 0 179.571 179.571" style="enable-background:new 0 0 179.571 179.571;"
	 xml:space="preserve">
<g>
	<path d="M169.615,44.471c-5.495,0-9.956,4.472-9.956,9.964c0,2.138,0.686,4.098,1.835,5.724l-40.268,31.282L93.91,29.724
		c3.438-1.572,5.832-5.028,5.832-9.039c0-5.492-4.461-9.964-9.956-9.964c-5.492,0-9.964,4.472-9.964,9.964
		c0,4.01,2.405,7.467,5.843,9.039l-27.222,61.48L18.09,60.154c1.139-1.621,1.825-3.581,1.825-5.719c0-5.492-4.461-9.964-9.959-9.964
		C4.466,44.471,0,48.943,0,54.435c0,5.489,4.466,9.956,9.956,9.956c0.216,0,0.417-0.053,0.627-0.063l28.653,73.989
		c0.253,0.664,0.696,1.213,1.231,1.646c0.005,0.042,0.011,0.089,0.021,0.116v17.908c0,1.481,0.815,2.858,2.138,3.564
		c5.266,2.821,22.708,7.299,47.158,7.299c24.869,0,41.755-3.755,47.455-7.478c1.145-0.749,1.836-2.025,1.836-3.386v-17.888
		c0.01-0.053,0.021-0.105,0.026-0.147c0.537-0.433,0.98-0.971,1.233-1.635l28.65-73.994c0.211,0.011,0.412,0.063,0.628,0.063
		c5.489,0,9.956-4.467,9.956-9.957C179.571,48.937,175.104,44.471,169.615,44.471z M169.615,56.292
		c-1.023,0-1.856-0.826-1.856-1.856c0-1.031,0.823-1.864,1.856-1.864c1.023,0,1.856,0.833,1.856,1.864
		C171.471,55.466,170.638,56.292,169.615,56.292z M89.796,18.821c1.02,0,1.858,0.833,1.858,1.864c0,1.031-0.833,1.856-1.858,1.856
		c-1.026,0-1.856-0.826-1.856-1.856C87.94,19.654,88.776,18.821,89.796,18.821z M114.644,96.551l-12.065,9.376l-8.69-22.183
		c3.459-1.566,5.885-5.031,5.885-9.06c0-5.492-4.472-9.964-9.967-9.964c-5.492,0-9.956,4.472-9.956,9.964
		c0,4.034,2.418,7.499,5.875,9.06l-8.461,21.924l-12.184-9.37l24.727-55.872L114.644,96.551z M156.42,74.366l-19.944,51.511
		l-11.854-26.815L156.42,74.366z M87.94,74.685c0-1.016,0.83-1.864,1.856-1.864c1.025,0,1.858,0.833,1.858,1.864
		c0,1.031-0.833,1.856-1.858,1.856C88.77,76.542,87.94,75.716,87.94,74.685z M89.823,95.591l6.08,15.515l-5.756,4.472l-6.194-4.777
		L89.823,95.591z M100.754,123.509c-0.116-0.011-0.232-0.021-0.338-0.021l-3.639-2.806l2.204-1.708L100.754,123.509z
		 M89.796,123.129c-0.53,0-1.546,0.011-2.813,0.037l3.175-2.458l3.234,2.479C91.687,123.14,90.429,123.129,89.796,123.129z
		 M83.537,120.719l-3.488,2.711c-0.33,0.021-0.675,0.058-1.01,0.068l1.864-4.805L83.537,120.719z M109.766,124.305l-4.118-10.499
		l12.371-9.608l10.674,24.1C123.177,126.262,116.258,125.039,109.766,124.305z M70.065,124.268
		c-6.573,0.754-13.577,1.973-19.167,4.019l10.795-24.374l12.511,9.619L70.065,124.268z M48.6,138.665v-0.115
		c0.49-0.518,1.495-1.087,2.787-1.688c0.928-0.417,2.057-0.85,3.396-1.282c3.035-0.996,6.982-1.945,11.971-2.721
		c0.082-0.011,0.14-0.037,0.222-0.048h0.994l0.185-0.143c1.015-0.131,2.088-0.264,3.169-0.385c1.448-0.168,2.942-0.321,4.514-0.442
		h-0.005h0.01c2.268-0.19,4.644-0.338,7.162-0.443c2.196-0.09,4.421-0.158,6.802-0.158c2.674,0,5.2,0.085,7.642,0.18
		c2.325,0.105,4.482,0.264,6.587,0.442c0.221,0.011,0.475,0.021,0.695,0.043c1.34,0.126,2.584,0.273,3.84,0.411
		c1.249,0.142,2.531,0.295,3.691,0.464c0.016,0.011,0.036,0.031,0.047,0.042h0.332c0.19,0.032,0.338,0.074,0.522,0.095
		c4.836,0.771,8.696,1.698,11.686,2.669c1.324,0.433,2.452,0.864,3.392,1.286c1.275,0.591,2.283,1.171,2.773,1.688v0.121
		c-0.654,0.681-1.993,1.461-4.019,2.242c-6.359,2.483-19.227,5.062-37.172,5.062c-17.938,0-30.808-2.579-37.167-5.062
		C50.604,140.121,49.254,139.35,48.6,138.665z M43.113,125.876L23.116,74.242L55.086,98.83L43.113,125.876z M130.987,155.54
		c-5.611,2.373-19.507,5.227-41.19,5.227c-20.435,0-35.208-3.265-41.196-5.432v-7.383c13.144,5.863,37.513,6.117,41.196,6.117
		c3.681,0,28.055-0.254,41.19-6.117V155.54z"/>
</g>
<g>
</g>
<g>
</g>
<g>
</g>
<g>
</g>
<g>
</g>
<g>
</g>
<g>
</g>
<g>
</g>
<g>
</g>
<g>
</g>
<g>
</g>
<g>
</g>
<g>
</g>
<g>
</g>
<g>
</g>
</svg>
